<svg width="44" height="62" viewBox="0 0 44 62" fill="none" xmlns="http://www.w3.org/2000/svg">
<path d="M21.8615 50.1834C27.8889 50.1717 32.7638 45.2709 32.7579 39.2334C32.7579 37.7313 32.4462 36.247 31.8464 34.8746L31.8582 34.8687L22.7848 15.3836L17.2925 17.9517L26.1072 36.889L26.0895 36.8949L26.2189 37.1659C27.3538 39.5809 26.3189 42.4671 23.902 43.604C21.4911 44.7408 18.6097 43.7041 17.4748 41.2832C16.381 38.9565 17.2984 36.1822 19.5564 34.9629L19.7975 34.8333L17.2396 29.3377L16.9691 29.4732C11.5826 32.1591 9.38339 38.7386 12.0707 44.1341C13.9818 47.9628 17.8511 50.1834 21.8615 50.1834Z" fill="#00A19D"/>
<path d="M41.3018 29.214L28.0709 0.793274L22.5786 3.36144L29.6821 18.6291L29.6704 18.6232L36.0741 32.3829C39.8493 40.2524 36.5387 49.6945 28.6825 53.4702C20.8263 57.2459 11.4001 53.9356 7.63073 46.0661C6.60755 43.9338 6.07243 41.5954 6.07243 39.2216C6.06655 35.1278 7.65425 31.1931 10.5004 28.248L10.6415 28.1007L7.94827 22.3164L7.65425 22.5638C-1.51913 30.4215 -2.60112 44.2401 5.2433 53.429C13.0877 62.6179 26.8831 63.7017 36.0565 55.844C43.7656 49.2704 45.9355 38.2379 41.3018 29.214Z" fill="#00A19D"/>
</svg>
